{"buffers":[{"uri":"Test_Piece.bin","byteLength":91692}],"asset":{"version":"2.0","generator":"gltfpack 0.16"},"bufferViews":[{"buffer":0,"byteOffset":0,"byteLength":33288,"byteStride":12,"target":34962},{"buffer":0,"byteOffset":33288,"byteLength":33288,"byteStride":12,"target":34962},{"buffer":0,"byteOffset":66576,"byteLength":25116,"target":34963}],"accessors":[{"bufferView":0,"byteOffset":0,"componentType":5126,"count":2774,"type":"VEC3","min":[-10.1599903,0,-10.1563902],"max":[10.1456003,10.1599903,10.1563902]},{"bufferView":1,"byteOffset":0,"componentType":5126,"count":2774,"type":"VEC3"},{"bufferView":2,"byteOffset":0,"componentType":5123,"count":12558,"type":"SCALAR"}],"materials":[{"pbrMetallicRoughness":{"baseColorFactor":[0.627451003,0.627451003,0.627451003,1],"metallicFactor":0},"doubleSided":true}],"meshes":[{"primitives":[{"attributes":{"POSITION":0,"NORMAL":1},"mode":4,"indices":2,"material":0}]}],"nodes":[{"mesh":0},{"children":[0]}],"scenes":[{"nodes":[1]}]}